<svg xmlns="http://www.w3.org/2000/svg" viewBox="0 0 304 304"><circle fill="#D9D9D9" cx="152" cy="152" r="152"/><path fill="#FFF" d="M118.1 207.1c-2.2.8-4.4 1.6-6.5 2.4 0 6.3-1.4 11.5-4 15.2-5.1 7.2-15 10.5-23.6 14.2-13.9 6-27.1 12.8-40.6 18.7-.1.1-.3.1-.4.2 27.6 28.4 66.3 46.1 109 46.1s81.3-17.6 108.9-46c-.3-.1-.6-.3-.9-.4-15-6.6-29.7-14.4-44.5-20.9-5.1-2.2-9.9-4.8-14.5-7.5-1.4-.8-3.2-1.4-4.1-2.7-3-4-4.2-10.1-4.2-17.1-1.8-.7-5.5-1.1-6.5-2.5-.9-1.3-.4-3.4-.7-5.2-.7-4.1-1.7-9.9-.8-14.3.7-3.9 3.6-6.3 5.1-9.7 2-4.5 3.1-9.6 5-14.4.6-1.5 1.4-3.9 2.7-4.7.7-.4 1.4-.2 1.8-.8l1.2-3.9c1.3-3.4 2.9-6.8 3.9-10.6.8-3.3 1.3-8.1.6-12-.3-1.8-1.4-4.6-.8-6.8 2-8.4 6.1-18.7 3.9-29.9-2.3-11.3-7.9-16.9-13.7-24.3-2.1-2.9-4.1-5.7-6.2-8.6-6.7-8.3-18.7-11.9-33.9-11.7-2.7.3-5.4.6-8.1 1-5.5 1.2-10.9 2.7-15.1 5.2-7.2 4.3-11.3 11.8-18.5 16-3.3 1.9-9.8 1.7-13.5 2.8-1.8 17.6-2.1 38.5 5.2 50.9-1.5 1-3.1 2-4.6 3 0 7.7-.2 15.1 2.1 20.9 2.1 5.3 5.9 9.1 8.1 14.2 1.5 4.3 3.1 8.6 4.6 12.9 1.4 3.1 4.2 5.6 5 9 .5 2.1.3 5.1 0 7.3-.7 4.7-1.1 9.4-1.4 14z"/></svg>