<svg width="54" height="126" viewBox="0 0 54 126" fill="none" xmlns="http://www.w3.org/2000/svg">
    <path fill-rule="evenodd" clip-rule="evenodd" d="M18.6889 110.567C18.6889 110.504 18.6764 109.983 19.0229 109.608C19.5216 109.07 21.0589 107.558 21.0589 107.558L25.2242 103.412L33.9874 112.153C33.9874 112.153 32.4616 112.153 30.4256 112.153C29.7852 112.153 29.0944 112.153 28.3847 112.153C27.803 112.153 27.2087 112.153 26.6191 112.153C24.4913 112.153 22.4253 112.153 21.239 112.153C20.7512 112.153 20.4122 112.153 20.2789 112.153C19.2172 112.153 18.6675 111.238 18.6889 110.567ZM35.2477 112.673L25.5847 103.053L39.7657 88.9376L26.7904 76L19.4736 83.2848C17.5239 85.2258 17.6628 87.1381 17.6628 89.8562V109.973C17.6356 111.636 18.9877 112.673 20.1887 112.673C21.2992 112.673 35.2477 112.673 35.2477 112.673ZM3.18245 122.647H4.81275C5.63695 122.647 6.01319 122.255 6.01319 121.666C6.01319 121.078 5.63695 120.685 4.81275 120.685H3.18245V122.647ZM2 119.633H4.84862C6.26404 119.633 7.19563 120.355 7.19563 121.666C7.19563 122.977 6.26404 123.699 4.84862 123.699H3.18245V125.875H2V119.633ZM11.1905 123.664C11.1905 122.852 10.5724 122.38 9.90946 122.38C9.24671 122.38 8.62862 122.852 8.62862 123.664C8.62862 124.475 9.24671 124.948 9.90946 124.948C10.5724 124.948 11.1905 124.475 11.1905 123.664ZM9.90946 126C8.69125 126 7.48193 125.215 7.48193 123.664C7.48193 122.112 8.69125 121.327 9.90946 121.327C11.1279 121.327 12.3371 122.112 12.3371 123.664C12.3371 125.215 11.1279 126 9.90946 126ZM17.38 124.725C16.9591 125.563 16.2334 126 15.3018 126C13.985 126 12.9638 125.073 12.9638 123.664C12.9638 122.255 14.0387 121.327 15.3018 121.327C16.2872 121.327 17.0217 121.773 17.3353 122.531L16.4126 123.138C16.1528 122.576 15.7586 122.38 15.2929 122.38C14.6299 122.38 14.1104 122.879 14.1104 123.664C14.1104 124.457 14.612 124.948 15.2929 124.948C15.8841 124.948 16.2155 124.654 16.4663 124.136L17.38 124.725Z" fill="#BDC1C4"/>
    <path fill-rule="evenodd" clip-rule="evenodd" d="M21.3931 122.433H20.1206V125.876H19.0282V122.433H17.7558V121.452H21.3931V122.433Z" fill="#BDC1C4"/>
    <path fill-rule="evenodd" clip-rule="evenodd" d="M22.8527 123.111H25.2356C25.1281 122.54 24.7071 122.183 24.071 122.183C23.4708 122.183 23.014 122.593 22.8527 123.111ZM22.8527 123.931C22.9243 124.609 23.4082 125.037 24.071 125.037C24.6891 125.037 25.0474 124.725 25.2983 124.225L26.1403 124.707C25.7193 125.572 25.0563 126 24.0531 126C22.8169 126 21.7689 125.064 21.7689 123.664C21.7689 122.264 22.8169 121.327 24.1069 121.327C25.3788 121.327 26.2747 122.246 26.2747 123.539V123.931H22.8527ZM31.1385 125.875H30.0455V122.469H28.6303L28.4243 124.627C28.3347 125.581 27.9494 125.938 27.2955 125.938C27.0357 125.938 26.8835 125.92 26.6684 125.875L26.8208 124.885C26.9104 124.921 26.9731 124.939 27.0537 124.939C27.2597 124.939 27.3404 124.832 27.3673 124.582L27.6718 121.452H31.1385V125.875ZM33.0998 123.111H35.4826C35.3753 122.54 34.9541 122.183 34.3183 122.183C33.7179 122.183 33.2611 122.593 33.0998 123.111ZM33.0998 123.931C33.1716 124.609 33.6552 125.037 34.3183 125.037C34.9363 125.037 35.2946 124.725 35.5454 124.225L36.3875 124.707C35.9663 125.572 35.3036 126 34.3003 126C33.0641 126 32.016 125.064 32.016 123.664C32.016 122.264 33.0641 121.327 34.354 121.327C35.626 121.327 36.5219 122.246 36.5219 123.539V123.931H33.0998ZM38.5459 121.452V122.897C38.5459 122.897 38.7161 122.656 38.8506 122.504L39.7821 121.452H41.108L39.4955 123.254L41.4304 125.875H40.1135L38.7789 124.056L38.5459 124.315V125.875H37.4172V121.452H38.5459ZM45.1119 123.664C45.1119 122.852 44.4938 122.38 43.8308 122.38C43.168 122.38 42.5499 122.852 42.5499 123.664C42.5499 124.475 43.168 124.948 43.8308 124.948C44.4938 124.948 45.1119 124.475 45.1119 123.664ZM43.8308 126C42.6126 126 41.4033 125.215 41.4033 123.664C41.4033 122.112 42.6126 121.327 43.8308 121.327C45.0491 121.327 46.2585 122.112 46.2585 123.664C46.2585 125.215 45.0491 126 43.8308 126Z" fill="#BDC1C4"/>
    <path fill-rule="evenodd" clip-rule="evenodd" d="M49.0709 125.876L48.1569 123.369V125.876H47.1357V121.452H48.3361L49.5639 124.698L50.7996 121.452H52V125.876H50.9788V123.369L50.0656 125.876H49.0709Z" fill="#BDC1C4"/>
    <path opacity="0.6" d="M31.8073 23.3498C31.6018 23.1622 31.332 23.06 31.0531 23.064C30.786 23.0694 30.5253 23.1468 30.299 23.2882C30.2764 23.2994 30.2579 23.3172 30.2458 23.3393C30.2337 23.3613 30.2287 23.3864 30.2314 23.4114C30.3293 24.006 30.3445 24.6111 30.2764 25.2097C30.2234 25.4561 30.0884 25.6775 29.8933 25.8381C29.6983 25.9987 29.4546 26.0892 29.2014 26.0949C29.0604 26.0956 28.9199 26.0748 28.785 26.0332L29.2577 25.7139C29.2752 25.7021 29.2894 25.6862 29.2991 25.6676C29.309 25.6491 29.3141 25.6284 29.3141 25.6075C29.3137 25.5874 29.3083 25.5677 29.2985 25.5502C29.2887 25.5326 29.2747 25.5176 29.2577 25.5067L28.3179 24.8624C28.6162 24.6383 28.8019 24.4814 28.8301 24.4591C28.8438 24.4483 28.8548 24.4347 28.8626 24.4192C28.8704 24.4037 28.8747 24.3868 28.8751 24.3694C28.8731 24.3341 28.8592 24.3005 28.8357 24.2741L28.6387 24.0893C28.6147 24.0655 28.5825 24.0515 28.5486 24.0501C28.523 24.0422 28.4955 24.0422 28.4699 24.0501C28.4699 24.0501 28.211 24.2461 27.8395 24.5038L27.513 24.2909L28.9876 23.2825L29.1002 23.5738C29.1097 23.5962 29.1252 23.6154 29.1452 23.6292C29.165 23.6431 29.1885 23.6511 29.2127 23.6523C29.2357 23.6515 29.2581 23.645 29.2778 23.6332C29.2974 23.6214 29.3138 23.6049 29.3253 23.5851L30.0288 22.3022C30.0413 22.2819 30.0478 22.2587 30.0478 22.2349C30.0478 22.2112 30.0413 22.188 30.0288 22.1677C30.0178 22.1508 30.0029 22.1369 29.9852 22.1272C29.9675 22.1175 29.9477 22.1121 29.9275 22.1117L28.4755 22.3302C28.4506 22.3327 28.4272 22.3425 28.4081 22.3585C28.389 22.3745 28.3752 22.3958 28.3685 22.4198C28.3637 22.4428 28.3647 22.4668 28.3716 22.4893C28.3785 22.5117 28.3911 22.5322 28.4079 22.5487L28.6443 22.756L26.9559 23.9044L25.2675 22.756L25.5039 22.5487C25.5213 22.5327 25.5338 22.512 25.5398 22.4892C25.5458 22.4664 25.545 22.4422 25.5377 22.4198C25.5328 22.3959 25.5203 22.3743 25.5021 22.3581C25.4838 22.3419 25.4608 22.3322 25.4363 22.3302L23.9843 22.1117C23.9641 22.1121 23.9444 22.1175 23.9267 22.1272C23.909 22.1369 23.894 22.1508 23.883 22.1677C23.8721 22.1885 23.8664 22.2115 23.8664 22.2349C23.8664 22.2584 23.8721 22.2814 23.883 22.3022L24.5865 23.5851C24.598 23.6049 24.6144 23.6214 24.634 23.6332C24.6538 23.645 24.6761 23.6515 24.6991 23.6523C24.7233 23.6511 24.7468 23.6431 24.7666 23.6292C24.7866 23.6154 24.8021 23.5962 24.8116 23.5738L24.9242 23.2825L26.3987 24.2909L26.0217 24.5486C25.6445 24.2909 25.3969 24.1005 25.3913 24.0949C25.372 24.0832 25.3499 24.0766 25.3274 24.0756C25.3047 24.0746 25.2822 24.0794 25.2619 24.0893C25.228 24.0906 25.1958 24.1046 25.1718 24.1285L25.003 24.2966C24.9902 24.3089 24.98 24.3237 24.9733 24.3401C24.9666 24.3565 24.9632 24.374 24.9636 24.3918C24.967 24.4262 24.983 24.4581 25.0086 24.4814C25.0367 24.4814 25.2168 24.6607 25.5207 24.8848L24.5752 25.5291C24.559 25.5403 24.5458 25.5554 24.537 25.573C24.5281 25.5907 24.5239 25.6102 24.5246 25.6299C24.5235 25.6511 24.5281 25.6721 24.538 25.6908C24.5479 25.7096 24.5628 25.7253 24.5808 25.7364L25.0537 26.0557C24.9188 26.0972 24.7783 26.1181 24.6372 26.1173C24.3829 26.1079 24.1393 26.0132 23.9462 25.8483C23.753 25.6835 23.6216 25.4584 23.5735 25.2097C23.4935 24.6129 23.4935 24.0083 23.5735 23.4114C23.5767 23.387 23.5725 23.3623 23.5614 23.3403C23.5503 23.3184 23.533 23.3002 23.5115 23.2882C23.2828 23.1474 23.0205 23.07 22.7517 23.064C22.4736 23.0633 22.2049 23.1651 21.9976 23.3498C21.9785 23.3718 21.9666 23.3992 21.9638 23.4282C21.9638 23.501 21.8118 25.3162 22.656 26.2294C22.8088 26.3962 22.9961 26.5282 23.2049 26.6163C23.4138 26.7043 23.6394 26.7462 23.8661 26.7392C23.9578 26.7473 24.0501 26.7473 24.1419 26.7392C24.6188 26.6791 25.0872 26.5644 25.5377 26.3974L26.3199 26.924L24.5865 28.0893C24.5695 28.1014 24.5555 28.1174 24.5457 28.1359C24.5359 28.1544 24.5306 28.1748 24.5302 28.1958C24.5314 28.2164 24.5371 28.2367 24.5468 28.255C24.5565 28.2733 24.5701 28.2894 24.5865 28.3021L26.3256 29.4954L24.8679 30.4982L24.7553 30.2125C24.7459 30.1903 24.7303 30.1711 24.7103 30.1572C24.6905 30.1434 24.667 30.1353 24.6428 30.1341C24.6198 30.1348 24.5975 30.1414 24.5777 30.1532C24.5581 30.1649 24.5417 30.1815 24.5302 30.2013L23.8267 31.4898C23.8158 31.5106 23.8102 31.5336 23.8102 31.5571C23.8102 31.5805 23.8158 31.6035 23.8267 31.6243C23.838 31.6405 23.8532 31.6536 23.8709 31.6623C23.8886 31.6712 23.9082 31.6754 23.928 31.6747L25.38 31.4618C25.4045 31.4598 25.4275 31.4501 25.4458 31.4339C25.464 31.4177 25.4765 31.3961 25.4814 31.3722C25.4885 31.3489 25.4892 31.324 25.4832 31.3003C25.4773 31.2766 25.4649 31.255 25.4476 31.2378L25.2619 31.0248L26.9503 29.8708L28.6387 31.0248L28.3967 31.2321C28.3788 31.2492 28.3658 31.2705 28.3588 31.2941C28.352 31.3177 28.3515 31.3427 28.3572 31.3666C28.3639 31.3905 28.3777 31.4119 28.3969 31.4278C28.4159 31.4438 28.4394 31.4538 28.4642 31.4563L29.9162 31.6691C29.936 31.6698 29.9557 31.6656 29.9734 31.6568C29.9911 31.6479 30.0062 31.6348 30.0175 31.6187C30.0284 31.598 30.0341 31.5748 30.0341 31.5515C30.0341 31.5281 30.0284 31.505 30.0175 31.4843L29.3141 30.1957C29.3026 30.176 29.2863 30.1594 29.2665 30.1475C29.2468 30.1358 29.2245 30.1293 29.2014 30.1285C29.1772 30.1298 29.1538 30.1377 29.1339 30.1516C29.1139 30.1655 29.0984 30.1847 29.0889 30.2069L28.9764 30.4927L27.4962 29.4731L29.2014 28.2854C29.2179 28.2726 29.2315 28.2565 29.2412 28.2382C29.2509 28.2198 29.2565 28.1996 29.2577 28.1789C29.2573 28.158 29.252 28.1376 29.2423 28.1191C29.2325 28.1006 29.2185 28.0846 29.2014 28.0725L27.513 26.8904L28.2954 26.3638C28.7461 26.5301 29.2143 26.6447 29.6912 26.7055C29.7828 26.7138 29.8751 26.7138 29.9669 26.7055C30.1937 26.7134 30.4195 26.6717 30.6285 26.5837C30.8375 26.4957 31.0247 26.3633 31.1769 26.1957C32.0211 25.2826 31.8748 23.4675 31.8692 23.3946C31.8517 23.3758 31.8306 23.3605 31.8073 23.3498ZM26.9109 24.6831L27.2824 24.9352L26.9109 25.1593L26.545 24.9352L26.9109 24.6831ZM25.5601 25.6075L26.078 25.2546C26.1736 25.3217 26.2805 25.389 26.3931 25.4562C26.1905 25.5646 25.9879 25.6654 25.7853 25.7587L25.5601 25.6075ZM28.2334 28.1789L26.9109 29.0864L25.594 28.1789L26.9109 27.2938L28.2334 28.1789ZM26.9109 26.4982L26.2749 26.0612C26.5 25.9604 26.7082 25.8484 26.9109 25.7419C27.1191 25.8484 27.3274 25.9604 27.5581 26.0612L26.9109 26.4982ZM28.0759 25.7699C27.8676 25.6747 27.665 25.5739 27.4625 25.4674L27.7776 25.2657L28.2954 25.6187L28.0759 25.7699Z" fill="#91989D"/>
    <path opacity="0.6" d="M32.2504 24.4145C32.2909 24.3218 32.3174 24.2236 32.3288 24.1232H32.2504V24.4145Z" fill="#91989D"/>
    <path opacity="0.6" d="M48.8987 19.9272C48.1691 19.58 47.352 19.4571 46.5518 19.5742C47.9757 19.0812 48.9493 18.0281 49 17.0868C48.2794 16.9205 47.5284 16.9379 46.8163 17.1373C47.5086 16.6218 48.6454 15.6807 48.5047 14.2969C47.835 14.1344 46.6081 14.5994 46.0903 14.8291C47.7337 13.9104 48.3415 11.7367 47.458 10.5042C46.9401 10.8067 44.5876 13.1933 44.2106 13.4678C45.1277 12.5165 45.8452 11.3929 46.321 10.1624C46.7093 9.14846 46.7376 7.36135 45.4768 6.80112C44.3857 9.00467 43.1012 11.108 41.6385 13.0868C41.5091 12.9692 41.4077 12.818 41.2446 12.7955C40.8737 13.8124 40.2388 14.7132 39.4043 15.4062C39.3648 15.3334 39.286 15.1317 39.1622 14.9187C38.3687 16.0952 36.3088 17.7199 35.6447 18.7115C35.5105 18.8584 35.4086 19.0316 35.3455 19.2199C35.2822 19.4082 35.2592 19.6075 35.2777 19.8051C35.2963 20.0029 35.3559 20.1945 35.453 20.3679C35.5502 20.5413 35.6825 20.6926 35.8416 20.8123C36.1343 21.0981 36.6914 21.6135 36.2074 22.3306C36.0651 22.5384 35.8831 22.7163 35.6715 22.854C35.46 22.9916 35.2232 23.0863 34.9749 23.1327C34.7265 23.1789 34.4713 23.176 34.2241 23.1239C33.9768 23.0718 33.7424 22.9717 33.5341 22.8291C33.5341 22.6611 33.5341 22.4986 33.5341 22.3529C33.7298 22.2586 33.9003 22.1194 34.0316 21.9469C34.163 21.7744 34.2514 21.5734 34.2898 21.3603C34.3282 21.1473 34.3156 20.9282 34.2527 20.721C34.1898 20.5138 34.0786 20.3244 33.9281 20.168C33.799 20.4292 33.573 20.6302 33.2978 20.7283C33.2609 20.5742 33.214 20.4225 33.1571 20.2745L33.1402 20.168H33.067C33.067 20.168 32.7856 20.168 32.3747 20.1008C32.6113 20.0226 32.8118 19.8626 32.9398 19.6499C33.0679 19.4371 33.115 19.1856 33.0727 18.9412C32.8409 19.137 32.5412 19.2344 32.238 19.2124C31.9349 19.1904 31.6526 19.0507 31.4518 18.8236C31.224 18.5458 31.0685 18.2166 30.9988 17.8649C30.9292 17.5131 30.9474 17.1497 31.0522 16.8068C31.318 15.8605 31.8466 15.0079 32.5774 14.3474C32.6339 14.4151 32.7056 14.4687 32.7867 14.5038C32.8679 14.5388 32.9562 14.5543 33.0445 14.5491C33.1965 14.4986 33.4497 14.3697 33.6411 14.2969C33.8759 14.2255 34.1232 14.2045 34.3668 14.2355C34.6103 14.2664 34.8445 14.3485 35.0537 14.4762C35.2578 14.5681 35.4246 14.7262 35.5268 14.9246C35.629 15.123 35.6607 15.3501 35.6166 15.5687C36.5564 15.0364 36.23 14.1624 34.9974 13.8319C35.8416 13.8319 36.5339 14.5994 36.6859 14.7003C36.9131 14.8395 37.1719 14.9196 37.4384 14.9333C37.7049 14.947 37.9706 14.8939 38.211 14.7787C38.9595 14.4202 39.1059 13.5463 38.909 13.367C38.8692 13.5401 38.7744 13.6958 38.6385 13.8109C38.5025 13.9261 38.3329 13.9944 38.1548 14.0056C37.5426 14.0203 36.9374 13.8755 36.3988 13.5854C35.9092 13.3964 35.3875 13.3031 34.8623 13.3109C35.7066 12.846 37.0179 12.8963 37.4851 13.6134C37.6378 13.5141 37.7671 13.3831 37.8643 13.2293C37.9614 13.0756 38.024 12.9028 38.0478 12.7227C38.2843 11.4678 37.2993 10.8235 36.2525 10.8235C36.2681 10.7633 36.2653 10.6998 36.2445 10.6411C36.2238 10.5824 36.186 10.5313 36.1359 10.4941C36.0858 10.4568 36.0257 10.4353 35.9634 10.4321C35.9009 10.4289 35.839 10.4442 35.7854 10.4762C35.7915 10.4244 35.7849 10.3719 35.7663 10.3231C35.7477 10.2744 35.7175 10.2308 35.6784 10.1961H35.7572C36.7114 10.187 37.6318 9.84383 38.3574 9.22689C39.3029 8.2241 37.7946 6.94118 38.3574 5.94959C38.8589 6.24047 39.4043 6.44858 39.9727 6.56583C40.0526 6.76368 40.1075 6.9707 40.1358 7.18207C40.3666 8.30253 39.2579 8.4874 39.5449 9.68067C39.6688 10.2409 40.0739 10.4089 40.2146 11.0532C40.2194 11.2093 40.1914 11.3648 40.1322 11.5096C40.0731 11.6543 39.9842 11.7851 39.8713 11.8935C40.057 11.9188 40.246 11.8947 40.4193 11.8239C40.5926 11.753 40.744 11.6379 40.8583 11.49C40.9725 11.3422 41.0455 11.167 41.0698 10.9821C41.0942 10.7972 41.069 10.6092 40.997 10.4369C40.8732 10.1456 40.558 9.87676 40.558 9.52941C41.0251 10.1456 41.4416 10.1233 42.162 9.89356C42.4883 9.79273 42.5165 10.2466 42.3082 10.6107C42.4859 10.5116 42.6361 10.3702 42.7451 10.1991C42.8542 10.028 42.9188 9.83244 42.933 9.63026C42.9554 9.52196 42.9472 9.40962 42.9094 9.30564C42.8717 9.20167 42.8057 9.11012 42.7189 9.04112C42.6321 8.97213 42.5278 8.92837 42.4177 8.91468C42.3074 8.901 42.1956 8.91793 42.0944 8.9636C41.8806 8.9636 41.4472 9.27732 41.4247 8.86275C41.3346 8.14566 42.4715 8.16807 42.2408 7.01401C42.117 6.45379 41.4753 6.11765 40.4623 5.9944C40.2855 5.8199 40.1218 5.63265 39.9727 5.43418C39.4098 4.51541 38.847 4.28011 38.5094 4.46499C38.1716 4.64986 37.8903 4.84594 37.5638 5.02521C37.3009 5.11969 37.0569 5.26008 36.8434 5.43978C36.3988 6 36.8434 6.82354 37.046 7.33894C37.3354 7.78549 37.4607 8.31793 37.4006 8.84594C37.2206 9.46219 36.1963 9.84875 35.5827 9.96638C35.5433 9.96638 35.5152 9.96638 35.4759 9.96638V9.7255C35.6588 9.41447 35.8187 9.09053 35.9542 8.75631C36.3707 7.63586 35.746 7.19889 34.8286 6.986C34.7718 6.94694 34.7063 6.92198 34.6378 6.91321C34.5692 6.90444 34.4996 6.91211 34.4346 6.93558V7.12046L34.2658 7.08684V6.86275H34.2095C34.2594 6.82364 34.2992 6.77325 34.3257 6.71577C34.3521 6.65829 34.3644 6.59537 34.3615 6.53222C34.3618 6.42049 34.3284 6.31123 34.2658 6.21849H34.3896L34.3333 6.16807C34.2969 6.10086 34.2471 6.04176 34.187 5.9944C34.1603 5.96665 34.1427 5.93149 34.1364 5.89356C34.1649 5.92432 34.1993 5.94909 34.2377 5.96639C34.2924 6.01249 34.3433 6.06309 34.3896 6.11765L34.4627 6.16807V5.14286L34.3896 5.20449C34.3365 5.24255 34.2858 5.28369 34.2377 5.32773C34.187 5.37815 34.1588 5.37815 34.1364 5.40056C34.1138 5.42298 34.1364 5.35015 34.187 5.29972C34.2491 5.26151 34.2996 5.20731 34.3333 5.14286L34.3896 5.06443H33.3597L33.4103 5.14286C33.4675 5.1922 33.522 5.24456 33.5735 5.29972C33.5926 5.33836 33.6194 5.37268 33.6524 5.40056C33.6524 5.40056 33.5735 5.40056 33.5454 5.32773C33.5173 5.2549 33.4103 5.2269 33.3597 5.20449L33.309 5.14286V6.16247L33.3597 6.11205C33.416 6.05518 33.4783 6.00448 33.5454 5.96079L33.6524 5.88796C33.6524 5.88796 33.6017 5.96079 33.5735 5.9888C33.5264 6.05304 33.4716 6.11134 33.4103 6.16247L33.3597 6.21289H33.5229C33.4812 6.25303 33.4492 6.30222 33.4298 6.35664C33.4102 6.41105 33.4036 6.46922 33.4103 6.52662C33.4092 6.58794 33.4207 6.64884 33.4438 6.70565C33.4671 6.76246 33.5016 6.81399 33.5454 6.85715V7.08124L33.4103 7.11486V6.92998C33.3483 6.906 33.2812 6.89806 33.2152 6.90688C33.1493 6.91568 33.0867 6.94098 33.0333 6.9804C32.0991 7.19329 31.4799 7.64707 31.9077 8.75071C32.0297 9.10847 32.1862 9.45368 32.3747 9.78152V9.94393C31.2236 9.52876 30.1771 8.86925 29.3075 8.01121C29.2662 7.96364 29.2286 7.91308 29.195 7.85995V7.19329C29.5148 6.61371 29.7804 6.00611 29.9885 5.37816C30.5851 3.78151 29.7127 3.13726 28.3001 2.84034C28.2212 2.77966 28.1275 2.74094 28.0286 2.72813C27.9297 2.71534 27.8291 2.72893 27.7373 2.76751L27.6867 3.01401H27.3939L27.4221 2.68907C27.3721 2.70001 27.3202 2.70001 27.2702 2.68907C27.3693 2.63158 27.4522 2.55007 27.5113 2.45213C27.5703 2.35419 27.6036 2.24299 27.6078 2.12885C27.6079 2.03432 27.5867 1.94098 27.5458 1.85567C27.5049 1.77036 27.4453 1.69525 27.3715 1.63585H27.6078C27.4286 1.48374 27.288 1.29184 27.197 1.07563C27.4108 1.17712 27.6021 1.31995 27.7598 1.4958V0.151261C27.636 0.252101 27.3715 0.504202 27.197 0.526611C27.3119 0.322375 27.4669 0.143273 27.6528 0H26.3415C26.4429 0.128851 26.6961 0.380953 26.7186 0.526611C26.5667 0.526611 26.319 0.252101 26.1558 0.151261V1.46219C26.3201 1.29364 26.51 1.15185 26.7186 1.04202C26.7186 1.22129 26.4429 1.48459 26.3415 1.60224H26.5667C26.4932 1.66136 26.4347 1.7367 26.3956 1.82227C26.3566 1.90784 26.338 2.0013 26.3415 2.09524C26.3426 2.20876 26.3731 2.32008 26.4304 2.41828C26.4876 2.51649 26.5695 2.59822 26.668 2.65546C26.6102 2.66508 26.5512 2.66508 26.4934 2.65546V2.98039H26.2065V2.73389C26.1139 2.69856 26.014 2.68671 25.9158 2.69942C25.8176 2.71213 25.724 2.74902 25.6437 2.80672C24.276 3.08684 23.3924 3.7479 23.9947 5.34455C24.1972 5.98467 24.481 6.5965 24.8389 7.16527V7.85995C24.8389 7.85995 24.7882 7.93278 24.7375 7.9832C24.2986 8.59945 22.6045 9.61345 21.6703 9.91598V9.7535C21.859 9.42567 22.0154 9.08046 22.1374 8.72269C22.5595 7.60224 21.9404 7.16527 21.0118 6.95238C20.9573 6.91296 20.8936 6.8877 20.8269 6.8789C20.76 6.87009 20.6921 6.87802 20.6291 6.90197V7.08684L20.5053 7.05323V6.82914C20.5856 6.73766 20.6296 6.62012 20.6291 6.4986C20.635 6.44218 20.629 6.38514 20.6116 6.33113C20.5941 6.27712 20.5656 6.22732 20.5277 6.18488H20.6797L20.5727 6.16247C20.5153 6.11087 20.4643 6.05256 20.4208 5.9888L20.3364 5.88796C20.3364 5.88796 20.4208 5.93838 20.449 5.96079C20.5106 6.00718 20.5688 6.05771 20.6234 6.11205L20.6741 6.16247V5.14286L20.6234 5.20449C20.5625 5.24144 20.5041 5.28262 20.449 5.32773C20.4208 5.37815 20.3589 5.37815 20.3364 5.40056C20.3713 5.37313 20.4 5.3388 20.4208 5.29972C20.4687 5.24477 20.5194 5.19241 20.5727 5.14286L20.6234 5.04202H19.5935L19.6385 5.12045C19.6819 5.17578 19.7289 5.22819 19.7792 5.27732C19.8299 5.32773 19.8524 5.35575 19.8524 5.37816C19.8524 5.40056 19.8018 5.37816 19.7567 5.30533C19.6998 5.26768 19.6452 5.22652 19.5935 5.18207L19.5147 5.12045V6.16247L19.5935 6.11205C19.5935 6.06723 19.6892 6.01121 19.7567 5.96079C19.7926 5.94212 19.8249 5.91749 19.8524 5.88796C19.8489 5.90924 19.8404 5.92942 19.8277 5.94691C19.8149 5.9644 19.7984 5.97874 19.7792 5.9888C19.7285 6.06723 19.6667 6.11205 19.6385 6.16247L19.5935 6.21289H19.7285C19.654 6.30076 19.6123 6.4116 19.6104 6.52662C19.6094 6.59122 19.6244 6.65508 19.6537 6.71266C19.6831 6.77025 19.7262 6.81984 19.7792 6.85715H19.7285V7.08124L19.5823 7.11486V6.92998H19.5541C19.4911 6.90653 19.4231 6.89886 19.3565 6.90766C19.2897 6.91645 19.2262 6.94143 19.1714 6.9804C18.2372 7.19329 17.6237 7.64707 18.0458 8.75071C18.1656 9.11019 18.3202 9.45728 18.5073 9.78712V10.0281C18.4679 10.0281 18.4285 10.0281 18.406 10.0281C17.7869 9.90476 16.7513 9.51821 16.5712 8.90757C16.514 8.37972 16.6391 7.8482 16.9258 7.40056C17.1678 6.88515 17.5731 6.03922 17.1453 5.50141C16.9307 5.30913 16.6853 5.15387 16.4193 5.04202C16.0929 4.86835 15.8903 4.68908 15.4794 4.4818C15.0686 4.27451 14.5676 4.56023 14.0049 5.47899C13.8625 5.68449 13.6963 5.87254 13.5096 6.03922C12.5134 6.16247 11.8719 6.4818 11.7368 7.05883C11.506 8.21289 12.6428 8.17928 12.5697 8.90757C12.5416 9.32213 12.1026 9.03082 11.8943 9.00841C11.7986 8.97932 11.6972 8.97421 11.5989 8.99355C11.5007 9.01289 11.4088 9.05607 11.3314 9.11927C11.2541 9.18245 11.1935 9.26369 11.1552 9.35577C11.117 9.44785 11.1021 9.54791 11.1121 9.64707C11.1339 9.84626 11.2037 10.0373 11.3153 10.204C11.4271 10.3707 11.5773 10.5083 11.7536 10.6051C11.551 10.2409 11.5735 9.78712 11.9112 9.88796C12.6316 10.1176 13.0369 10.1401 13.504 9.52381C13.504 9.85995 13.2057 10.1401 13.065 10.4314C12.9929 10.6035 12.9677 10.7915 12.9921 10.9764C13.0164 11.1614 13.0894 11.3367 13.2037 11.4844C13.3178 11.6322 13.4693 11.7474 13.6426 11.8182C13.8159 11.8892 14.005 11.9132 14.1906 11.888C14.0716 11.7847 13.9793 11.6544 13.9216 11.5081C13.8638 11.3619 13.8422 11.204 13.8585 11.0476C13.988 10.4034 14.4214 10.2129 14.5283 9.67507C14.8097 8.4818 13.701 8.29133 13.9655 7.17647C13.9928 6.96605 14.0438 6.75934 14.1174 6.56023C14.673 6.44178 15.2053 6.23361 15.6933 5.94398C16.211 6.93558 14.7196 8.21849 15.6933 9.22129C16.4183 9.83534 17.3359 10.1781 18.2878 10.1904H18.3722C18.3332 10.2252 18.303 10.2688 18.2844 10.3176C18.2657 10.3663 18.2592 10.4188 18.2653 10.4706C18.2121 10.4393 18.1509 10.4246 18.0893 10.4283C18.0278 10.432 17.9686 10.4538 17.9196 10.4912C17.8706 10.5285 17.834 10.5796 17.8143 10.6378C17.7947 10.696 17.793 10.7587 17.8094 10.8179C16.7289 10.8179 15.7664 11.4622 16.0085 12.7171C16.0288 12.8981 16.09 13.0723 16.1875 13.2266C16.285 13.3808 16.4161 13.5111 16.5712 13.6078C17.0271 12.8908 18.3385 12.8403 19.1939 13.3053C18.6651 13.2971 18.1396 13.3903 17.6462 13.5798C17.114 13.8704 16.514 14.0154 15.9071 14C15.7276 13.9887 15.5565 13.9198 15.4196 13.8037C15.2826 13.6876 15.1871 13.5304 15.1473 13.3558C14.9448 13.535 15.0967 14.4089 15.8508 14.7675C16.0893 14.8827 16.3532 14.9359 16.6179 14.9222C16.8827 14.9085 17.1396 14.8283 17.3648 14.6891C17.5449 14.5882 18.2372 13.8208 19.087 13.8208C17.86 14.1513 17.5168 15.0252 18.4791 15.5574C18.4261 15.3425 18.4499 15.1159 18.5464 14.9165C18.643 14.7172 18.8062 14.5575 19.0082 14.465C19.2178 14.3379 19.4519 14.2563 19.6953 14.2254C19.9388 14.1945 20.1859 14.2151 20.4208 14.2857C20.6122 14.3586 20.8598 14.4874 21.0174 14.5379C21.1047 14.5422 21.1919 14.5263 21.2721 14.4913C21.3522 14.4563 21.423 14.4032 21.4789 14.3361C22.1765 15.0163 22.6797 15.869 22.9365 16.8068C23.0451 17.1515 23.0648 17.5179 22.994 17.8722C22.9232 18.2266 22.7641 18.5575 22.5313 18.8347C22.3335 19.0596 22.0558 19.1991 21.7566 19.2242C21.4575 19.2493 21.1602 19.1579 20.9273 18.9692C20.8838 19.2138 20.9304 19.4658 21.0586 19.6788C21.1869 19.8918 21.3881 20.0516 21.6253 20.1289L20.9218 20.168H20.8485L20.8204 20.2353C20.7568 20.3814 20.7077 20.5334 20.6741 20.6891C20.4031 20.5885 20.1814 20.3878 20.055 20.1289C19.9072 20.2853 19.7986 20.4743 19.7378 20.6804C19.6771 20.8865 19.666 21.104 19.7055 21.3152C19.745 21.5263 19.8339 21.7252 19.965 21.8959C20.0961 22.0664 20.2657 22.2038 20.4602 22.2969C20.4602 22.4482 20.4602 22.6162 20.4602 22.7899C20.0399 23.0696 19.5259 23.1729 19.0295 23.0774C18.5332 22.982 18.0948 22.6955 17.8094 22.2801C17.3142 21.5631 17.8826 21.0476 18.1639 20.762C18.3217 20.6412 18.4527 20.4894 18.5489 20.316C18.645 20.1427 18.7041 19.9514 18.7226 19.7543C18.7411 19.557 18.7185 19.3582 18.6562 19.1701C18.5941 18.982 18.4935 18.8087 18.361 18.6611C17.6969 17.6695 15.637 16.0448 14.8434 14.8684C14.7515 15.0233 14.6743 15.1865 14.6127 15.3557C13.7756 14.6628 13.1369 13.7623 12.7611 12.7451C12.6091 12.7451 12.4966 12.9188 12.3671 13.0364C10.9059 11.0674 9.61973 8.97546 8.52315 6.78432C7.27372 7.37815 7.29624 9.14846 7.67894 10.1456C8.16409 11.3684 8.87841 12.4882 9.78384 13.4454C9.40675 13.1709 7.05986 10.7844 6.53646 10.4818C5.66974 11.7143 6.26068 13.8879 7.89844 14.8067C7.39755 14.5771 6.15938 14.1121 5.49527 14.2746C5.36582 15.6582 6.4858 16.5995 7.18368 17.1148C6.46975 16.9229 5.71867 16.9132 5 17.0868C5.05066 18.0281 6.03556 19.0812 7.42006 19.5742C6.62908 19.4594 5.82165 19.5823 5.1013 19.9272C5.20262 20.9076 6.31134 21.7479 7.65081 21.9496C6.84844 22.0075 6.09993 22.3731 5.56281 22.9692C5.82134 23.3345 6.16846 23.6288 6.57189 23.8246C6.97532 24.0206 7.42197 24.1117 7.8703 24.0897C7.57304 24.2001 7.30261 24.372 7.07675 24.5938C7.04148 24.5615 6.99527 24.5435 6.94731 24.5435C6.92222 24.5586 6.90338 24.5821 6.8941 24.6098C6.88482 24.6375 6.88573 24.6676 6.89665 24.6947V24.734C6.85133 24.7599 6.81225 24.7954 6.78212 24.838C6.75199 24.8805 6.73153 24.9292 6.72218 24.9804C6.61513 25.124 6.52629 25.2802 6.45767 25.4454C6.48068 25.4641 6.50514 25.4809 6.53082 25.4958C6.52062 25.5949 6.54659 25.6944 6.60399 25.7759C6.55751 25.834 6.52307 25.9006 6.50269 25.972L5.8442 25.7143C5.81106 25.9557 5.82845 26.2012 5.89528 26.4355C5.96211 26.6697 6.07694 26.8876 6.23254 27.0757C6.46892 27.3389 6.72781 27.2997 6.65464 27.3894L7.34689 27.8152C7.36895 27.8664 7.40161 27.9126 7.44273 27.9505C7.48387 27.9884 7.53255 28.0173 7.58564 28.0353C7.63872 28.0532 7.69501 28.0599 7.75083 28.0547C7.80667 28.0497 7.8608 28.0329 7.9097 28.0057V28.056C7.91378 28.1878 7.9587 28.315 8.0383 28.4203C8.1179 28.5257 8.22828 28.6038 8.35431 28.6443C8.30366 28.874 8.40496 29.0196 8.72014 29.1261L11.3485 35.4566C11.2916 35.5742 11.2833 35.7093 11.3254 35.8328C11.3675 35.9565 11.4566 36.0587 11.5735 36.1177C11.5063 36.2041 11.4706 36.3109 11.4723 36.4202C11.5735 36.3474 11.7255 36.3193 11.7986 36.5322C11.8719 36.7451 11.5735 37.1765 11.99 37.5014C11.9652 37.6491 11.9918 37.8007 12.0655 37.9311C12.1393 38.0616 12.2556 38.163 12.3952 38.2185C12.3952 38.3698 12.5303 38.8572 12.5584 39.0309C12.3671 39.2997 11.9393 39.7031 11.9957 40.1513C11.9982 40.2695 12.0424 40.3832 12.1206 40.4724C12.1987 40.5614 12.306 40.6203 12.4233 40.6387C12.3165 41.1933 12.6204 41.4566 13.1044 41.4566C13.1225 41.6125 13.1982 41.7562 13.3167 41.8597C13.4353 41.9633 13.5883 42.0192 13.746 42.0168C13.9393 42.1668 14.1467 42.2981 14.3651 42.409C14.1117 42.7059 14.2918 43.0981 14.7534 43.2214C14.7833 43.3215 14.8409 43.4112 14.9195 43.4806C14.9981 43.5498 15.0945 43.5959 15.198 43.6135C15.2559 43.7118 15.3492 43.7844 15.4589 43.8167C15.5688 43.8489 15.6867 43.8384 15.789 43.7872C15.8712 43.7222 15.9285 43.631 15.951 43.5289C15.9737 43.4269 15.9601 43.3202 15.9128 43.2269C15.9582 43.1486 15.9821 43.0597 15.9821 42.9692C15.9821 42.8787 15.9582 42.7898 15.9128 42.7116C15.9654 42.5887 15.9722 42.4511 15.9319 42.3238C15.8917 42.1965 15.807 42.0875 15.6933 42.0168C15.6997 41.8246 15.6632 41.6332 15.5863 41.4566L16.5712 40.8403C17.453 40.142 18.5136 39.7034 19.633 39.5742C20.0077 39.5496 20.3838 39.5496 20.7585 39.5742C21.22 39.6247 21.8841 39.7647 22.2387 39.479C22.2963 39.4465 22.343 39.3978 22.373 39.339C22.403 39.2802 22.415 39.214 22.4075 39.1485C22.3568 38.8628 22.0417 38.5883 21.9404 38.3474C21.9122 38.2633 21.8616 38.1513 21.8165 38.0448C22.0902 38.102 22.375 38.0746 22.6326 37.9664C22.8311 37.8841 23.0018 37.7471 23.1244 37.5714C23.2471 37.3957 23.3167 37.1886 23.3249 36.9748C22.9365 37.1597 21.9855 37.4118 21.8841 36.4594C21.7828 35.6135 22.5313 34.902 23.6907 35.2157C24.4843 35.4174 25.6437 37.098 24.5855 37.8263C24.0678 38.1793 23.2743 38.5154 23.3755 39.4342C23.5383 39.23 23.7512 39.0711 23.9939 38.973C24.2364 38.8748 24.5003 38.8407 24.76 38.8739C23.8933 39.5182 23.2236 39.5911 22.3175 40.084C21.5183 40.5435 20.9273 41.3165 20.3082 41.339C19.8299 41.339 19.5654 40.7787 20.0325 40.3585C19.7682 40.3302 19.5018 40.3881 19.2735 40.5236C19.0451 40.659 18.8671 40.8645 18.7662 41.1093C18.6479 41.3493 18.6197 41.6235 18.6869 41.8825C18.7539 42.1414 18.9119 42.3679 19.132 42.5211C18.8171 42.6725 18.566 42.9299 18.423 43.2475C18.2798 43.5652 18.2539 43.9229 18.3497 44.2577C18.5411 44.9468 19.2333 44.9468 18.9744 45.8263C19.155 45.7815 19.3204 45.6892 19.453 45.5592C19.5856 45.4291 19.6807 45.266 19.7285 45.0868C19.7476 44.8488 19.827 44.6194 19.9593 44.4202C19.937 44.764 20.0169 45.1068 20.189 45.4056C20.3611 45.7046 20.6179 45.9464 20.9273 46.1009C21.2249 46.2622 21.567 46.3227 21.9022 46.2732C22.2373 46.2236 22.547 46.0668 22.7846 45.8263C22.9438 46.1983 23.2111 46.5143 23.5521 46.7339C23.893 46.9535 24.2921 47.0666 24.6982 47.0589C25.0763 47.0422 25.4433 46.9263 25.7618 46.7227C26.0122 47.2774 26.4476 47.7287 26.9944 48C27.55 47.7316 27.9953 47.2804 28.2551 46.7227C28.5699 46.9254 28.933 47.0413 29.3075 47.0589C29.7137 47.0604 30.1112 46.9419 30.4498 46.7185C30.7884 46.4951 31.0529 46.1769 31.2098 45.804C31.4473 46.0443 31.7571 46.2012 32.0923 46.2507C32.4273 46.3003 32.7695 46.2398 33.067 46.0785C33.3761 45.9231 33.6328 45.6812 33.8057 45.3827C33.9787 45.0841 34.0603 44.7419 34.0407 44.3978C34.171 44.5976 34.2484 44.8269 34.2658 45.0645C34.3069 45.2449 34.3985 45.4102 34.5299 45.541C34.6614 45.6719 34.8274 45.7631 35.0087 45.804C34.7442 44.9244 35.4477 44.9244 35.6278 44.2353C35.7207 43.9026 35.6947 43.5479 35.554 43.2322C35.4133 42.9164 35.1669 42.6591 34.8568 42.5042C35.0741 42.3487 35.2285 42.121 35.2925 41.8623C35.3564 41.6036 35.3256 41.3307 35.2057 41.0925C35.1078 40.8476 34.9322 40.6411 34.7057 40.5046C34.4791 40.3681 34.214 40.309 33.9506 40.3362C34.4177 40.7732 34.1645 41.339 33.6748 41.3165C33.0558 41.3165 32.4648 40.521 31.6656 40.0617C30.7596 39.5687 30.0898 39.5014 29.2231 38.8516C29.4829 38.8166 29.7473 38.8499 29.9903 38.9482C30.2331 39.0465 30.446 39.2063 30.6076 39.4117C30.7089 38.4931 29.9154 38.1569 29.3975 37.804C28.3508 37.0757 29.4989 35.395 30.3037 35.1933C31.4293 34.8796 32.2116 35.591 32.0991 36.437C31.9695 37.3893 31.0522 37.1373 30.6357 36.9525C30.6509 37.1623 30.7233 37.364 30.8454 37.5358C30.9674 37.7077 31.1343 37.8429 31.328 37.9272C31.4963 37.9976 31.6772 38.0339 31.8598 38.0339C32.0425 38.0339 32.2233 37.9976 32.3917 37.9272C32.3917 38.0224 32.3636 38.1233 32.3636 38.1513C32.2847 38.9692 31.8457 39.0421 31.9977 39.3782C32.1496 39.7143 33.6242 39.5799 34.0013 39.6582C34.671 39.7479 35.2394 39.9944 35.8811 40.1233C36.6045 40.2004 37.32 40.3391 38.0197 40.5378C38.4305 40.7171 38.9033 41.0533 39.3029 41.255C39.922 41.3558 39.8207 41.6023 40.2146 41.6023C40.6086 41.6023 40.7042 41.3053 41.1601 41.1765C41.4753 41.1037 41.8242 41.227 42.1394 41.1261C42.4546 41.0252 42.4715 40.8403 42.7022 40.7171C42.933 40.5938 43.3101 40.5602 43.5464 40.3474C43.6041 40.2836 43.6462 40.2075 43.6697 40.1249C43.6931 40.0423 43.6971 39.9555 43.6815 39.8712V39.9104C44.1649 39.5622 44.53 39.0756 44.7283 38.5154C44.7907 38.5032 44.8471 38.4706 44.8888 38.4229C44.9306 38.3754 44.9553 38.3153 44.9591 38.2521V38.2017C45.0197 38.1531 45.0688 38.0917 45.1029 38.0219C45.1369 37.9522 45.155 37.8759 45.156 37.7983C45.1563 37.7116 45.1391 37.6257 45.1052 37.5459C45.0713 37.4659 45.0216 37.3937 44.9591 37.3333V37.283C44.9523 37.1956 44.9167 37.1128 44.8578 37.0476C44.7549 36.5137 44.5021 36.0197 44.1285 35.623C43.7549 35.2263 43.276 34.9433 42.7472 34.8067V34.7563C42.7472 34.7059 42.7191 34.6779 42.6854 34.6779C42.516 34.5286 42.3929 34.3343 42.3308 34.1176C42.554 34.2377 42.7602 34.3865 42.9442 34.5602V33.1428C42.7601 33.315 42.5538 33.4618 42.3308 33.5798C42.4249 33.3421 42.5755 33.1306 42.7698 32.9636H41.2615C41.4529 33.1332 41.603 33.344 41.7004 33.5798C41.4765 33.4606 41.2686 33.3138 41.0814 33.1428V34.5883C41.2685 34.4157 41.4764 34.267 41.7004 34.1456C41.605 34.3827 41.4545 34.5939 41.2615 34.7619L41.3121 34.7899C40.7657 34.9173 40.2683 35.2002 39.8806 35.6041C39.4928 36.0079 39.2315 36.5154 39.1285 37.0645C39.0895 37.0905 39.0574 37.1255 39.0349 37.1664C39.0123 37.2073 39.0001 37.2531 38.999 37.2998V37.3501C38.9356 37.4102 38.885 37.4823 38.8503 37.5622C38.8155 37.6421 38.7971 37.7281 38.7964 37.8151C38.8002 37.8927 38.8203 37.9686 38.8551 38.038C38.89 38.1074 38.939 38.1689 38.999 38.2185V38.2689C38.9958 38.3332 39.0172 38.3961 39.059 38.4451C39.1009 38.494 39.1599 38.5251 39.2241 38.5322C39.276 38.6701 39.3361 38.8048 39.4043 38.9356C39.3515 39.0969 39.2589 39.2424 39.135 39.3589C39.0111 39.4754 38.8599 39.559 38.695 39.6022C37.7946 39.7311 36.7984 39.3502 35.8811 39.0421C35.4156 38.9268 34.9947 38.6773 34.671 38.3249C34.5811 38.2165 34.5222 38.0859 34.5004 37.9469C34.4786 37.8079 34.4948 37.6656 34.5472 37.535C34.6848 37.6931 34.8509 37.8242 35.0369 37.9216C35.0509 37.7983 35.0754 37.6766 35.11 37.5575C35.2223 37.7245 35.3777 37.8585 35.5599 37.9452C35.7421 38.0319 35.9444 38.0683 36.1456 38.0504C35.9976 37.8655 35.8963 37.6478 35.8503 37.4158C35.8043 37.1839 35.8148 36.9442 35.8811 36.7171C36.0048 36.8917 36.1761 37.0274 36.3748 37.1083C36.5735 37.1892 36.7912 37.2119 37.0024 37.1735C37.2137 37.1353 37.4094 37.0377 37.5667 36.8923C37.724 36.7469 37.8363 36.5598 37.8902 36.353C37.8111 36.4055 37.7211 36.4397 37.6269 36.4531C37.5328 36.4664 37.4368 36.4585 37.3461 36.43C37.2553 36.4015 37.1722 36.3532 37.1027 36.2884C37.0333 36.2237 36.9793 36.1443 36.9448 36.056C36.7928 35.6135 37.2993 34.5434 36.8434 33.7143C36.6695 33.3952 36.4173 33.1252 36.1102 32.9293C35.8032 32.7334 35.4514 32.618 35.0875 32.5938C35.1629 32.4784 35.2056 32.3449 35.2113 32.2073C34.8553 32.3854 34.4433 32.4177 34.0635 32.2974C33.6839 32.1769 33.3666 31.9134 33.1796 31.563C33.4033 31.6423 33.6402 31.6783 33.8775 31.6695C33.0839 31.0196 33.1402 29.1989 33.703 28.2577C33.7762 28.2073 33.7986 28.1569 33.8775 28.1289C34.052 28.4818 34.5697 28.4818 34.8342 28.7731C34.9144 28.6955 34.9989 28.6226 35.0875 28.5547C35.0875 28.5547 35.0875 30.0504 35.2113 30.6667C35.3351 31.2829 35.988 31.2829 36.3369 31.5855C36.7421 31.1429 37.4625 31.1709 37.3612 30.4034C37.26 29.6359 37.108 28.9468 37.0799 28.4314C37.3106 28.8963 37.7496 30.6723 37.9297 31.1429C38.2054 31.888 38.9258 31.6639 39.331 31.9328C39.5955 31.4174 40.2596 31.2661 39.9951 30.4874C39.922 30.2857 38.8246 27.9888 38.6613 27.5462C39.0496 28.1065 40.1134 30.1344 40.4397 30.7003C40.7662 31.2661 41.4753 31.0029 41.9537 31.1541C42.0437 30.7283 42.6854 30.2353 42.2182 29.4734C41.6554 28.493 40.2372 26.7844 40.1639 26.5434C40.4397 26.8067 42.5953 29.4734 42.7641 29.6246C43.2651 30.0616 43.9966 29.7199 44.4525 29.7199C44.4525 29.2325 44.8408 28.6835 44.2781 28.1177C43.7153 27.5519 42.5897 26.7844 42.3195 26.4931C43.1131 27.0532 44.0473 27.8992 44.5707 28.0392C44.856 28.118 45.1551 28.1332 45.447 28.0838C45.7388 28.0345 46.0161 27.9216 46.2592 27.7535C45.9552 26.8572 46.3548 26.4482 44.2724 25.5798C46.0791 26.2185 46.8726 25.9048 47.5142 25.4006C47.2385 24.8032 46.7429 24.3339 46.1297 24.0897C46.5788 24.1116 47.0262 24.0205 47.4305 23.8246C47.8349 23.6288 48.183 23.3346 48.4429 22.9692C47.8956 22.3599 47.1293 21.9895 46.3098 21.9384C47.6718 21.7479 48.758 20.9076 48.8987 19.9272ZM7.10488 26.5098C7.10488 26.5098 7.10488 26.5098 7.05986 26.5602C6.90791 26.5602 6.90791 26.3586 6.93042 26.2073C6.96311 26.2089 6.99575 26.2032 7.02594 26.1905C7.05613 26.1779 7.0831 26.1588 7.10488 26.1344L7.03173 26.1849C7.08237 26.3306 7.08237 26.4089 7.10488 26.5098ZM7.60015 27.563L7.34689 27.4174C7.36261 27.3931 7.38326 27.3724 7.40749 27.3565C7.43174 27.3406 7.45904 27.33 7.48765 27.3252C7.51626 27.3206 7.54555 27.3218 7.57365 27.329C7.60175 27.3362 7.62803 27.3491 7.65081 27.367C7.65578 27.4013 7.65386 27.4364 7.64517 27.47C7.63648 27.5037 7.62117 27.5353 7.60015 27.563ZM8.34305 25.9944H8.24175H8.37683C8.36559 25.9955 8.35429 25.9955 8.34305 25.9944ZM22.6552 44.3474C22.0361 44.3474 21.597 43.9608 21.9122 43.4174C22.0062 43.5326 22.1234 43.6271 22.2562 43.6946C22.3889 43.7621 22.5344 43.8013 22.6833 43.8095C22.6609 43.9879 22.6515 44.1676 22.6552 44.3474ZM32.0708 43.4174C32.386 43.9777 31.9471 44.3474 31.328 44.3474C31.3366 44.1592 31.3195 43.9708 31.2773 43.7872C31.4285 43.7855 31.5774 43.7517 31.7143 43.6878C31.8512 43.6241 31.9728 43.5318 32.0708 43.4174ZM22.6326 10.1624C23.9302 9.88506 25.134 9.27918 26.1277 8.40337C26.6905 8.43137 27.3546 8.43698 27.8779 8.40337C28.8618 9.27855 30.0592 9.88129 31.3504 10.1513C30.5288 10.1513 29.0993 10.0784 28.9192 9.87676C28.9698 10.3922 30.0448 10.9972 30.782 11.1317C30.2342 11.2131 29.6744 11.1393 29.1668 10.9187C29.3985 11.3111 29.7609 11.6104 30.1911 11.7647C29.864 12.1049 29.4618 12.3646 29.0163 12.5231C28.5708 12.6816 28.0943 12.7346 27.6247 12.6778C27.7648 12.8337 27.9395 12.9548 28.135 13.0317C28.3303 13.1085 28.541 13.1389 28.7503 13.1205C27.7913 14.5236 27.1853 16.1357 26.9831 17.8208C26.8 16.1296 26.2092 14.5075 25.2609 13.0925C25.4706 13.1165 25.6831 13.0887 25.8794 13.0115C26.0758 12.9344 26.25 12.8101 26.3866 12.6498C25.9145 12.7169 25.4334 12.6716 24.9823 12.5177C24.5314 12.3639 24.1235 12.1059 23.792 11.7647C24.2171 11.622 24.579 11.3369 24.8163 10.958C24.309 11.1797 23.7489 11.2535 23.201 11.1709C23.9214 11.0084 25.0302 10.4314 25.0808 9.91598C24.8894 10.0841 23.4544 10.1624 22.6326 10.1624ZM9.68815 25.6191L9.27732 25.7703L9.68815 25.6191ZM18.7662 32.2017C18.7764 32.3393 18.8209 32.4722 18.8956 32.5883C18.5336 32.611 18.1835 32.726 17.879 32.9222C17.5744 33.1184 17.3256 33.3892 17.1566 33.7088C16.6613 34.5379 17.1566 35.6079 17.0384 36.0505C17.0039 36.1386 16.9499 36.2181 16.8804 36.2829C16.811 36.3475 16.7279 36.396 16.6371 36.4245C16.5464 36.4529 16.4504 36.4608 16.3562 36.4474C16.262 36.4341 16.172 36.3999 16.0929 36.3473C16.1469 36.5542 16.2591 36.7413 16.4164 36.8867C16.5737 37.0321 16.7695 37.1296 16.9807 37.168C17.1918 37.2062 17.4096 37.1836 17.6083 37.1027C17.8071 37.0219 17.9784 36.8861 18.1021 36.7115C18.1756 36.9453 18.191 37.1934 18.1469 37.4344C18.1027 37.6755 18.0004 37.9023 17.8489 38.0953C18.0472 38.1101 18.2461 38.0723 18.425 37.9856C18.604 37.899 18.7566 37.7668 18.8675 37.6023C18.9121 37.719 18.9386 37.8417 18.9463 37.9664C19.1353 37.8737 19.3022 37.7419 19.4359 37.5798C19.4991 37.7909 19.5087 38.0142 19.464 38.2297C19.2328 38.3793 18.9922 38.514 18.7436 38.6331C18.1066 38.9448 17.4338 39.1779 16.74 39.3277C16.449 39.3658 16.1535 39.3088 15.8977 39.1653C15.642 39.0219 15.4399 38.7998 15.3218 38.5322C15.1473 37.972 14.6577 37.7591 14.2637 38.1176C14.1885 38.0654 14.0967 38.0423 14.0055 38.0526C13.9143 38.0629 13.8301 38.106 13.7685 38.1737C13.701 38.0208 13.6078 37.8807 13.4927 37.7591C13.553 37.6192 13.5606 37.4622 13.5141 37.3171C13.4676 37.172 13.37 37.0485 13.2394 36.9692C13.2394 36.3754 12.8511 36.3754 12.7217 36.1737C12.5923 35.972 12.6485 35.8935 12.8286 35.8712C12.7977 35.8329 12.7593 35.8013 12.7158 35.7782C12.6723 35.7551 12.6245 35.741 12.5753 35.7367C12.6112 35.5994 12.5935 35.4536 12.5255 35.3288C12.4577 35.2041 12.3447 35.1095 12.2095 35.0644L9.2154 28.902C9.25633 28.8583 9.28603 28.8055 9.30194 28.7479C9.31786 28.6903 9.31953 28.6297 9.30681 28.5714C9.29409 28.513 9.26735 28.4585 9.22889 28.4128C9.19043 28.3669 9.14139 28.331 9.08595 28.3082V28.2633C9.09213 28.2225 9.09213 28.181 9.08595 28.14L9.35047 28.084C9.91328 27.944 10.8644 27.0812 11.6636 26.5379C11.3822 26.8291 10.2228 27.6582 9.70504 28.1625C9.18726 28.6667 9.42364 29.1148 9.50243 29.5406L9.615 29.7816C10.054 29.8096 10.7125 30.0728 11.2021 29.6695C11.3597 29.5183 13.5152 26.8684 13.8022 26.5882C13.6953 26.8291 12.3278 28.5378 11.7142 29.5183C11.2528 30.2577 11.9282 30.7507 12.0013 31.1989C12.4909 31.0476 13.1663 31.3334 13.5152 30.7451C13.8642 30.1569 14.9054 28.1569 15.2937 27.591C15.1417 28.0337 14.033 30.3306 13.9598 30.5322C13.6953 31.3109 14.3594 31.4622 14.6296 31.9777C15.0292 31.6919 15.7552 31.916 16.0422 31.1709C16.2167 30.6723 16.6613 28.93 16.8864 28.4594C16.8864 28.9748 16.7119 29.6639 16.6106 30.4314C16.5094 31.1989 17.2297 31.1709 17.6068 31.6135C17.9727 31.3109 18.6424 31.3894 18.7324 30.6947C18.8225 30 18.8619 28.5827 18.8619 28.5827C18.9632 28.6723 19.0138 28.6947 19.1264 28.8011C19.3796 28.5098 19.8975 28.5098 20.0719 28.1569C20.1507 28.1569 20.1732 28.2353 20.252 28.2857C20.8148 29.2269 20.8655 31.0476 20.0719 31.6919C20.3072 31.6994 20.542 31.6633 20.7641 31.5855C20.4489 32.2745 19.6667 32.5267 18.7662 32.2017ZM24.3604 40.8068C23.8927 41.3807 23.5133 42.0208 23.2349 42.7059C22.672 42.6499 22.7958 41.9888 22.9704 41.6471C23.3361 40.9805 24.8276 40.1177 25.5705 39.2494C25.2043 39.7961 24.8 40.3165 24.3604 40.8068ZM25.9757 42.0168C25.6584 43.221 25.5181 44.4645 25.5592 45.7088C24.5124 45.1485 25.1034 43.0701 25.5086 42.1681C26.0355 40.9643 26.4008 39.6966 26.5948 38.3978C26.9493 39.1149 26.1952 41.1933 25.9757 42.0168ZM28.4239 45.7088C28.4708 44.4643 28.3304 43.2199 28.0074 42.0168C27.7879 41.2213 27.0676 39.1429 27.3883 38.3978C27.5797 39.6972 27.9451 40.9653 28.4746 42.1681C28.8798 43.0421 29.4708 45.1373 28.4239 45.6807V45.7088ZM31.0241 41.6751C31.1985 42.0168 31.3054 42.6779 30.7596 42.7339C30.4751 42.0517 30.0963 41.4125 29.6339 40.8348C29.1863 40.3498 28.7797 39.8289 28.4182 39.2774C29.1668 40.1177 30.6582 40.9805 31.0241 41.6471V41.6751ZM30.889 32.6555C29.8925 34.4685 28.5706 36.0844 26.9887 37.423C25.4027 36.0871 24.0785 34.4707 23.0829 32.6555C21.7832 29.8965 21.0067 26.9222 20.7922 23.8824C20.711 22.9259 20.8279 21.963 21.1356 21.0533C22.1784 20.9869 23.2098 20.7989 24.2085 20.493C25.2168 20.0789 26.1546 19.512 26.9887 18.8124C27.8202 19.5157 28.7587 20.083 29.769 20.493C30.7676 20.7994 31.799 20.9874 32.8419 21.0533C33.1452 21.9639 33.2601 22.9263 33.1796 23.8824C32.9598 26.9213 32.1835 29.8946 30.889 32.6555Z" fill="#91989D"/>
    <path opacity="0.6" d="M11.9209 49V54.874H11.0575V50.8479C11.0575 50.7826 11.0589 50.7119 11.0617 50.6357C11.0673 50.5569 11.0743 50.478 11.0826 50.3992L9.14213 53.8868C9.06669 54.031 8.95073 54.103 8.79426 54.103H8.65596C8.49669 54.103 8.38073 54.031 8.30809 53.8868L6.33823 50.391C6.34662 50.4699 6.35221 50.5487 6.355 50.6276C6.36059 50.7064 6.36338 50.7799 6.36338 50.8479V54.874H5.5V49H6.23346C6.32007 49 6.38713 49.0082 6.43463 49.0245C6.48213 49.0381 6.52544 49.0829 6.56456 49.1591L8.50088 52.5734C8.54279 52.6522 8.58191 52.7338 8.61823 52.8181C8.65735 52.8997 8.69228 52.984 8.72301 53.071C8.75654 52.984 8.79147 52.8983 8.82779 52.814C8.86691 52.727 8.90743 52.6441 8.94934 52.5652L10.8563 49.1591C10.8954 49.0829 10.9387 49.0381 10.9862 49.0245C11.0337 49.0082 11.1008 49 11.1874 49H11.9209ZM16.8766 50.7132V54.874H15.9755V52.2674C15.9755 52.2103 15.9783 52.1478 15.9839 52.0798C15.9895 52.0118 15.9979 51.9424 16.0091 51.8717C15.9811 51.9316 15.9532 51.9873 15.9253 52.039C15.9001 52.0879 15.8722 52.1328 15.8414 52.1736L13.9847 54.6578C13.9512 54.7095 13.9065 54.7598 13.8506 54.8087C13.7947 54.855 13.7319 54.8781 13.662 54.8781H13.1172V50.7132H14.0183V53.3198C14.0183 53.3769 14.0141 53.4409 14.0057 53.5116C14.0001 53.5823 13.9917 53.653 13.9805 53.7237C14.0364 53.5986 14.0937 53.4952 14.1524 53.4137L16.0091 50.9335C16.0426 50.8791 16.0873 50.8288 16.1432 50.7826C16.1991 50.7364 16.2619 50.7132 16.3318 50.7132H16.8766ZM21.6177 50.7132V54.874H20.7208V52.9853H18.8725V54.874H17.9714V50.7132H18.8725V52.3245H20.7208V50.7132H21.6177ZM27.1492 54.2132V56.0202C27.1492 56.1018 27.1255 56.1657 27.078 56.212C27.0305 56.2609 26.969 56.2854 26.8936 56.2854H26.3361V54.874H22.7191V50.7132H23.6202V54.2132H25.4686V50.7132H26.3655V54.2132H27.1492ZM31.6112 50.7132V54.874H30.7101V52.2674C30.7101 52.2103 30.7129 52.1478 30.7185 52.0798C30.7241 52.0118 30.7325 51.9424 30.7437 51.8717C30.7157 51.9316 30.6878 51.9873 30.6598 52.039C30.6347 52.0879 30.6068 52.1328 30.576 52.1736L28.7193 54.6578C28.6858 54.7095 28.6411 54.7598 28.5852 54.8087C28.5293 54.855 28.4665 54.8781 28.3966 54.8781H27.8518V50.7132H28.7529V53.3198C28.7529 53.3769 28.7487 53.4409 28.7403 53.5116C28.7347 53.5823 28.7263 53.653 28.7151 53.7237C28.771 53.5986 28.8283 53.4952 28.887 53.4137L30.7437 50.9335C30.7772 50.8791 30.8219 50.8288 30.8778 50.7826C30.9337 50.7364 30.9965 50.7132 31.0664 50.7132H31.6112ZM35.5644 54.2744C36.0198 54.2444 36.3691 54.1017 36.6121 53.8461C36.858 53.5904 36.981 53.2396 36.981 52.7936C36.981 52.3476 36.858 51.9968 36.6121 51.7412C36.3691 51.4829 36.0198 51.3387 35.5644 51.3088V54.2744ZM34.7764 51.3088C34.321 51.3387 33.9703 51.4829 33.7244 51.7412C33.4813 51.9968 33.3598 52.3476 33.3598 52.7936C33.3598 53.2396 33.4813 53.5904 33.7244 53.8461C33.9703 54.1017 34.321 54.2444 34.7764 54.2744V51.3088ZM35.5895 50.6521C35.936 50.6684 36.2503 50.7296 36.5325 50.8356C36.8147 50.9417 37.055 51.0872 37.2534 51.2721C37.4518 51.457 37.6055 51.6773 37.7144 51.9329C37.8234 52.1885 37.8779 52.4741 37.8779 52.7895C37.8779 53.105 37.8234 53.3905 37.7144 53.6462C37.6055 53.9018 37.4518 54.1221 37.2534 54.307C37.055 54.4919 36.8147 54.6388 36.5325 54.7475C36.2503 54.8536 35.936 54.9148 35.5895 54.9311V56.2854H34.7471V54.9311C34.4006 54.9148 34.0863 54.8536 33.8041 54.7475C33.5219 54.6388 33.2816 54.4919 33.0832 54.307C32.8848 54.1221 32.7311 53.9018 32.6221 53.6462C32.5132 53.3905 32.4587 53.105 32.4587 52.7895C32.4587 52.4768 32.5132 52.1926 32.6221 51.937C32.7311 51.6814 32.8848 51.4611 33.0832 51.2762C33.2816 51.0913 33.5219 50.9458 33.8041 50.8397C34.0863 50.7309 34.4006 50.6684 34.7471 50.6521V49H35.5895V50.6521ZM39.6318 53.8297C39.7576 53.9875 39.8945 54.099 40.0426 54.1642C40.1935 54.2268 40.3597 54.258 40.5413 54.258C40.8934 54.258 41.1672 54.133 41.3628 53.8828C41.5612 53.6326 41.6604 53.26 41.6604 52.7651C41.6604 52.5094 41.638 52.2919 41.5933 52.1124C41.5486 51.9302 41.4843 51.782 41.4005 51.6678C41.3167 51.5536 41.2147 51.4706 41.0946 51.4189C40.9744 51.3673 40.8389 51.3414 40.688 51.3414C40.4589 51.3414 40.2605 51.3904 40.0929 51.4883C39.928 51.5835 39.7743 51.7208 39.6318 51.9003V53.8297ZM39.5857 51.317C39.7646 51.113 39.9671 50.9485 40.1935 50.8234C40.4226 50.6983 40.688 50.6357 40.9898 50.6357C41.2301 50.6357 41.448 50.6833 41.6436 50.7785C41.8392 50.871 42.0068 51.0069 42.1465 51.1864C42.2863 51.3659 42.3938 51.5889 42.4693 51.8554C42.5475 52.1192 42.5866 52.4224 42.5866 52.7651C42.5866 53.0724 42.5433 53.3593 42.4567 53.6258C42.3729 53.8896 42.2513 54.1194 42.0921 54.3152C41.9328 54.5082 41.74 54.6605 41.5137 54.772C41.2874 54.8808 41.0317 54.9352 40.7467 54.9352C40.4952 54.9352 40.2815 54.8958 40.1054 54.8169C39.9322 54.738 39.7743 54.6292 39.6318 54.4906V56.2568H38.7307V50.7132H39.2756C39.3985 50.7132 39.4768 50.769 39.5103 50.8805L39.5857 51.317ZM45.1596 54.2377C45.291 54.2377 45.4055 54.2213 45.5033 54.1887C45.6039 54.1533 45.6863 54.1071 45.7506 54.05C45.8176 53.9902 45.8665 53.9195 45.8973 53.8379C45.9308 53.7563 45.9476 53.6666 45.9476 53.5687C45.9476 53.4816 45.9322 53.4001 45.9015 53.3239C45.8735 53.2451 45.8274 53.1771 45.7632 53.12C45.7017 53.0601 45.6207 53.0139 45.5201 52.9813C45.4195 52.9459 45.2965 52.9282 45.1512 52.9282H44.3172V54.2377H45.1596ZM45.1471 52.296C45.4432 52.296 45.6933 52.3313 45.8973 52.402C46.1012 52.47 46.2661 52.5625 46.3918 52.6794C46.5176 52.7963 46.6084 52.9323 46.6643 53.0873C46.7201 53.2396 46.7481 53.3987 46.7481 53.5646C46.7481 53.7577 46.7132 53.9344 46.6433 54.0949C46.5735 54.2526 46.4701 54.3899 46.3332 54.5069C46.199 54.6238 46.0328 54.7149 45.8344 54.7802C45.6388 54.8427 45.4139 54.874 45.1596 54.874H43.4622V50.7132H44.3172V52.296H45.1471ZM48.5 50.7132V54.874H47.5989V50.7132H48.5ZM16.8651 61.0589C17.083 61.0589 17.2744 61.0317 17.4393 60.9773C17.6069 60.923 17.7452 60.8468 17.8542 60.7489C17.966 60.6483 18.0498 60.5273 18.1057 60.3859C18.1616 60.2444 18.1895 60.0867 18.1895 59.9127C18.1895 59.7414 18.1616 59.5877 18.1057 59.4517C18.0526 59.3158 17.9716 59.2002 17.8626 59.105C17.7536 59.0098 17.6153 58.9378 17.4477 58.8888C17.2828 58.8371 17.0886 58.8113 16.8651 58.8113H15.9682V61.0589H16.8651ZM16.8651 58.0648C17.2591 58.0648 17.6 58.1097 17.8877 58.1994C18.1783 58.2892 18.4172 58.4156 18.6044 58.5788C18.7944 58.7392 18.9355 58.9337 19.0277 59.1621C19.12 59.3878 19.1661 59.638 19.1661 59.9127C19.1661 60.1928 19.1172 60.4498 19.0194 60.6836C18.9216 60.9148 18.7763 61.1147 18.5835 61.2833C18.3907 61.4492 18.1504 61.5797 17.8626 61.6749C17.5776 61.7673 17.2451 61.8136 16.8651 61.8136H15.9682V63.9388H14.9875V58.0648H16.8651ZM21.5714 59.7128C21.8872 59.7128 22.1722 59.7631 22.4264 59.8637C22.6835 59.9643 22.9014 60.1071 23.0802 60.292C23.2619 60.477 23.4016 60.7013 23.4994 60.9651C23.5972 61.2289 23.646 61.5253 23.646 61.8544C23.646 62.1834 23.5972 62.4798 23.4994 62.7436C23.4016 63.0074 23.2619 63.2331 23.0802 63.4208C22.9014 63.6057 22.6835 63.7485 22.4264 63.8491C22.1722 63.9497 21.8872 64 21.5714 64C21.2529 64 20.9651 63.9497 20.708 63.8491C20.4538 63.7485 20.2358 63.6057 20.0542 63.4208C19.8726 63.2331 19.7329 63.0074 19.6351 62.7436C19.5373 62.4798 19.4884 62.1834 19.4884 61.8544C19.4884 61.5253 19.5373 61.2289 19.6351 60.9651C19.7329 60.7013 19.8726 60.477 20.0542 60.292C20.2358 60.1071 20.4538 59.9643 20.708 59.8637C20.9651 59.7631 21.2529 59.7128 21.5714 59.7128ZM21.5714 63.3147C21.957 63.3147 22.2434 63.1896 22.4306 62.9394C22.6206 62.6865 22.7156 62.3262 22.7156 61.8584C22.7156 61.3907 22.6206 61.0304 22.4306 60.7775C22.2434 60.5218 21.957 60.394 21.5714 60.394C21.1802 60.394 20.8897 60.5218 20.6997 60.7775C20.5097 61.0304 20.4147 61.3907 20.4147 61.8584C20.4147 62.3262 20.5097 62.6865 20.6997 62.9394C20.8897 63.1896 21.1802 63.3147 21.5714 63.3147ZM27.5337 60.5939C27.5057 60.6292 27.4792 60.6564 27.4541 60.6755C27.4289 60.6945 27.3926 60.704 27.3451 60.704C27.2976 60.704 27.2473 60.6877 27.1942 60.6551C27.1439 60.6225 27.0824 60.5871 27.0098 60.549C26.9399 60.5082 26.8547 60.4715 26.7541 60.4389C26.6535 60.4063 26.5278 60.3899 26.3769 60.3899C26.1813 60.3899 26.0095 60.4239 25.8614 60.4919C25.7161 60.5599 25.5932 60.6578 25.4926 60.7856C25.3948 60.9107 25.3207 61.0644 25.2705 61.2466C25.223 61.426 25.1992 61.6286 25.1992 61.8544C25.1992 62.0882 25.2257 62.2963 25.2788 62.4785C25.3319 62.6607 25.4074 62.8143 25.5052 62.9394C25.6057 63.0645 25.7259 63.1597 25.8656 63.225C26.0081 63.2902 26.1674 63.3229 26.3434 63.3229C26.5166 63.3229 26.6577 63.3025 26.7667 63.2617C26.8757 63.2209 26.9665 63.176 27.0391 63.1271C27.1118 63.0781 27.1732 63.0332 27.2235 62.9924C27.2766 62.9517 27.3325 62.9313 27.3912 62.9313C27.4638 62.9313 27.5197 62.9585 27.5588 63.0128L27.8145 63.3351C27.7111 63.4575 27.5966 63.5608 27.4708 63.6451C27.3451 63.7294 27.2124 63.7988 27.0727 63.8532C26.933 63.9048 26.7877 63.9415 26.6368 63.9633C26.4859 63.9878 26.3336 64 26.1799 64C25.9145 64 25.6658 63.9524 25.4339 63.8572C25.2048 63.7593 25.0036 63.6193 24.8304 63.4371C24.6599 63.2522 24.5244 63.0278 24.4238 62.764C24.326 62.4975 24.2771 62.1943 24.2771 61.8544C24.2771 61.5471 24.3219 61.2629 24.4113 61.0018C24.5007 60.738 24.6306 60.511 24.801 60.3206C24.9743 60.1302 25.188 59.982 25.4423 59.876C25.6966 59.7672 25.9899 59.7128 26.3224 59.7128C26.6326 59.7128 26.905 59.7617 27.1397 59.8596C27.3772 59.9575 27.5882 60.0962 27.7726 60.2757L27.5337 60.5939ZM31.4876 60.5939C31.4596 60.6292 31.4331 60.6564 31.4079 60.6755C31.3828 60.6945 31.3464 60.704 31.2989 60.704C31.2514 60.704 31.2012 60.6877 31.1481 60.6551C31.0978 60.6225 31.0363 60.5871 30.9637 60.549C30.8938 60.5082 30.8086 60.4715 30.708 60.4389C30.6074 60.4063 30.4817 60.3899 30.3308 60.3899C30.1352 60.3899 29.9634 60.4239 29.8153 60.4919C29.67 60.5599 29.547 60.6578 29.4464 60.7856C29.3487 60.9107 29.2746 61.0644 29.2243 61.2466C29.1768 61.426 29.1531 61.6286 29.1531 61.8544C29.1531 62.0882 29.1796 62.2963 29.2327 62.4785C29.2858 62.6607 29.3612 62.8143 29.459 62.9394C29.5596 63.0645 29.6798 63.1597 29.8195 63.225C29.962 63.2902 30.1212 63.3229 30.2973 63.3229C30.4705 63.3229 30.6116 63.3025 30.7206 63.2617C30.8295 63.2209 30.9203 63.176 30.993 63.1271C31.0656 63.0781 31.1271 63.0332 31.1774 62.9924C31.2305 62.9517 31.2864 62.9313 31.3451 62.9313C31.4177 62.9313 31.4736 62.9585 31.5127 63.0128L31.7684 63.3351C31.665 63.4575 31.5504 63.5608 31.4247 63.6451C31.2989 63.7294 31.1662 63.7988 31.0265 63.8532C30.8868 63.9048 30.7415 63.9415 30.5906 63.9633C30.4398 63.9878 30.2875 64 30.1338 64C29.8684 64 29.6197 63.9524 29.3878 63.8572C29.1587 63.7593 28.9575 63.6193 28.7842 63.4371C28.6138 63.2522 28.4783 63.0278 28.3777 62.764C28.2799 62.4975 28.231 62.1943 28.231 61.8544C28.231 61.5471 28.2757 61.2629 28.3651 61.0018C28.4545 60.738 28.5845 60.511 28.7549 60.3206C28.9281 60.1302 29.1419 59.982 29.3962 59.876C29.6504 59.7672 29.9438 59.7128 30.2763 59.7128C30.5864 59.7128 30.8589 59.7617 31.0936 59.8596C31.3311 59.9575 31.542 60.0962 31.7264 60.2757L31.4876 60.5939ZM36.2526 59.7781V63.9388H35.3515V61.3322C35.3515 61.2751 35.3543 61.2126 35.3599 61.1446C35.3655 61.0766 35.3739 61.0073 35.3851 60.9366C35.3571 60.9964 35.3292 61.0521 35.3012 61.1038C35.2761 61.1527 35.2482 61.1976 35.2174 61.2384L33.3607 63.7226C33.3272 63.7743 33.2825 63.8246 33.2266 63.8735C33.1707 63.9198 33.1079 63.9429 33.038 63.9429H32.4932V59.7781H33.3943V62.3847C33.3943 62.4418 33.3901 62.5057 33.3817 62.5764C33.3761 62.6471 33.3677 62.7178 33.3565 62.7885C33.4124 62.6634 33.4697 62.5601 33.5284 62.4785L35.3851 59.9983C35.4186 59.944 35.4633 59.8936 35.5192 59.8474C35.5751 59.8012 35.6379 59.7781 35.7078 59.7781H36.2526ZM41.1069 59.7781V63.9388H40.2058V61.3322C40.2058 61.2751 40.2085 61.2126 40.2141 61.1446C40.2197 61.0766 40.2281 61.0073 40.2393 60.9366C40.2113 60.9964 40.1834 61.0521 40.1555 61.1038C40.1303 61.1527 40.1024 61.1976 40.0716 61.2384L38.2149 63.7226C38.1814 63.7743 38.1367 63.8246 38.0808 63.8735C38.0249 63.9198 37.9621 63.9429 37.8922 63.9429H37.3474V59.7781H38.2485V62.3847C38.2485 62.4418 38.2443 62.5057 38.2359 62.5764C38.2303 62.6471 38.2219 62.7178 38.2108 62.7885C38.2666 62.6634 38.3239 62.5601 38.3826 62.4785L40.2393 59.9983C40.2728 59.944 40.3175 59.8936 40.3734 59.8474C40.4293 59.8012 40.4922 59.7781 40.562 59.7781H41.1069Z" fill="#91989D"/>
</svg>
